<?xml version="1.0" encoding="UTF-8" standalone="no"?>
<!DOCTYPE svg PUBLIC "-//W3C//DTD SVG 1.1//EN"
 "http://www.w3.org/Graphics/SVG/1.1/DTD/svg11.dtd">
<!-- Generated by graphviz version 5.0.0 (20220707.1540)
 -->
<!-- Title: dependencies Pages: 1 -->
<svg width="324pt" height="247pt"
 viewBox="0.00 0.00 324.00 246.80" xmlns="http://www.w3.org/2000/svg" xmlns:xlink="http://www.w3.org/1999/xlink">
<g id="graph0" class="graph" transform="scale(1 1) rotate(0) translate(4 242.8)">
<title>dependencies</title>
<polygon fill="white" stroke="transparent" points="-4,4 -4,-242.8 320,-242.8 320,4 -4,4"/>
<text text-anchor="middle" x="158" y="-8.2" font-family="sans-serif" font-size="14.00">dependencies</text>
<g id="clust1" class="cluster">
<title>cluster_BookModule</title>
<polygon fill="none" stroke="black" stroke-dasharray="1,5" points="8,-32.8 8,-230.8 308,-230.8 308,-32.8 8,-32.8"/>
</g>
<g id="clust4" class="cluster">
<title>cluster_BookModule_exports</title>
<polygon fill="none" stroke="black" points="102,-170.8 102,-222.8 210,-222.8 210,-170.8 102,-170.8"/>
</g>
<g id="clust3" class="cluster">
<title>cluster_BookModule_imports</title>
<polygon fill="none" stroke="black" points="16,-40.8 16,-92.8 300,-92.8 300,-40.8 16,-40.8"/>
</g>
<!-- BookElasticModule -->
<g id="node1" class="node">
<title>BookElasticModule</title>
<polygon fill="#8dd3c7" stroke="black" points="291.99,-84.8 288.99,-88.8 267.99,-88.8 264.99,-84.8 164.01,-84.8 164.01,-48.8 291.99,-48.8 291.99,-84.8"/>
<text text-anchor="middle" x="228" y="-62.6" font-family="Times,serif" font-size="14.00">BookElasticModule</text>
</g>
<!-- BookModule -->
<g id="node3" class="node">
<title>BookModule</title>
<polygon fill="#8dd3c7" stroke="black" points="200.89,-149.8 197.89,-153.8 176.89,-153.8 173.89,-149.8 111.11,-149.8 111.11,-113.8 200.89,-113.8 200.89,-149.8"/>
<text text-anchor="middle" x="156" y="-127.6" font-family="Times,serif" font-size="14.00">BookModule</text>
</g>
<!-- BookElasticModule&#45;&gt;BookModule -->
<g id="edge1" class="edge">
<title>BookElasticModule&#45;&gt;BookModule</title>
<path fill="none" stroke="black" d="M182.48,-84.91C182.48,-84.91 182.48,-103.79 182.48,-103.79"/>
<polygon fill="black" stroke="black" points="178.98,-103.79 182.48,-113.79 185.98,-103.79 178.98,-103.79"/>
</g>
<!-- BookRedisModule -->
<g id="node2" class="node">
<title>BookRedisModule</title>
<polygon fill="#8dd3c7" stroke="black" points="145.78,-84.8 142.78,-88.8 121.78,-88.8 118.78,-84.8 24.22,-84.8 24.22,-48.8 145.78,-48.8 145.78,-84.8"/>
<text text-anchor="middle" x="85" y="-62.6" font-family="Times,serif" font-size="14.00">BookRedisModule</text>
</g>
<!-- BookRedisModule&#45;&gt;BookModule -->
<g id="edge2" class="edge">
<title>BookRedisModule&#45;&gt;BookModule</title>
<path fill="none" stroke="black" d="M128.47,-84.91C128.47,-84.91 128.47,-103.79 128.47,-103.79"/>
<polygon fill="black" stroke="black" points="124.97,-103.79 128.47,-113.79 131.97,-103.79 124.97,-103.79"/>
</g>
<!-- BookService  -->
<g id="node4" class="node">
<title>BookService </title>
<polygon fill="#fb8072" stroke="black" points="201.82,-214.8 110.18,-214.8 110.18,-178.8 201.82,-178.8 201.82,-214.8"/>
<text text-anchor="middle" x="156" y="-192.6" font-family="Times,serif" font-size="14.00">BookService </text>
</g>
<!-- BookModule&#45;&gt;BookService  -->
<g id="edge3" class="edge">
<title>BookModule&#45;&gt;BookService </title>
<path fill="none" stroke="black" stroke-dasharray="5,2" d="M156,-149.91C156,-149.91 156,-168.79 156,-168.79"/>
<polygon fill="black" stroke="black" points="152.5,-168.79 156,-178.79 159.5,-168.79 152.5,-168.79"/>
</g>
</g>
</svg>
