<?xml version="1.0" encoding="UTF-8" standalone="no"?>
<!DOCTYPE svg PUBLIC "-//W3C//DTD SVG 1.1//EN"
 "http://www.w3.org/Graphics/SVG/1.1/DTD/svg11.dtd">
<!-- Generated by graphviz version 5.0.0 (20220707.1540)
 -->
<!-- Title: dependencies Pages: 1 -->
<svg width="610pt" height="326pt"
 viewBox="0.00 0.00 610.00 325.80" xmlns="http://www.w3.org/2000/svg" xmlns:xlink="http://www.w3.org/1999/xlink">
<g id="graph0" class="graph" transform="scale(1 1) rotate(0) translate(4 321.8)">
<title>dependencies</title>
<polygon fill="white" stroke="transparent" points="-4,4 -4,-321.8 606,-321.8 606,4 -4,4"/>
<text text-anchor="middle" x="301" y="-8.2" font-family="sans-serif" font-size="14.00">dependencies</text>
<g id="clust1" class="cluster">
<title>cluster_AppModule</title>
<polygon fill="none" stroke="black" stroke-dasharray="1,5" points="8,-108.8 8,-301.8 446,-301.8 446,-108.8 8,-108.8"/>
</g>
<g id="clust3" class="cluster">
<title>cluster_AppModule_imports</title>
<polygon fill="none" stroke="black" points="16,-116.8 16,-233.8 438,-233.8 438,-116.8 16,-116.8"/>
</g>
<g id="clust25" class="cluster">
<title>cluster_BookModule</title>
<polygon fill="none" stroke="black" stroke-dasharray="1,5" points="153,-32.8 153,-100.8 569,-100.8 569,-32.8 153,-32.8"/>
</g>
<g id="clust27" class="cluster">
<title>cluster_BookModule_imports</title>
<polygon fill="none" stroke="black" points="277,-40.8 277,-92.8 561,-92.8 561,-40.8 277,-40.8"/>
</g>
<g id="clust28" class="cluster">
<title>cluster_BookModule_exports</title>
<polygon fill="none" stroke="black" points="161,-40.8 161,-92.8 269,-92.8 269,-40.8 161,-40.8"/>
</g>
<g id="clust37" class="cluster">
<title>cluster_MemberModule</title>
<polygon fill="none" stroke="black" stroke-dasharray="1,5" points="454,-241.8 454,-309.8 594,-309.8 594,-241.8 454,-241.8"/>
</g>
<g id="clust40" class="cluster">
<title>cluster_MemberModule_exports</title>
<polygon fill="none" stroke="black" points="462,-249.8 462,-301.8 586,-301.8 586,-249.8 462,-249.8"/>
</g>
<!-- BookConfigModule -->
<g id="node1" class="node">
<title>BookConfigModule</title>
<polygon fill="#8dd3c7" stroke="black" points="152.28,-160.8 149.28,-164.8 128.28,-164.8 125.28,-160.8 23.72,-160.8 23.72,-124.8 152.28,-124.8 152.28,-160.8"/>
<text text-anchor="middle" x="88" y="-138.6" font-family="Times,serif" font-size="14.00">BookConfigModule</text>
</g>
<!-- AppModule -->
<g id="node5" class="node">
<title>AppModule</title>
<polygon fill="#8dd3c7" stroke="black" points="292.66,-293.8 289.66,-297.8 268.66,-297.8 265.66,-293.8 209.34,-293.8 209.34,-257.8 292.66,-257.8 292.66,-293.8"/>
<text text-anchor="middle" x="251" y="-271.6" font-family="Times,serif" font-size="14.00">AppModule</text>
</g>
<!-- BookConfigModule&#45;&gt;AppModule -->
<g id="edge1" class="edge">
<title>BookConfigModule&#45;&gt;AppModule</title>
<path fill="none" stroke="black" d="M88,-161.01C88,-197.44 88,-275.8 88,-275.8 88,-275.8 199.02,-275.8 199.02,-275.8"/>
<polygon fill="black" stroke="black" points="199.02,-279.3 209.02,-275.8 199.02,-272.3 199.02,-279.3"/>
</g>
<!-- BookJWTTokenModule -->
<g id="node2" class="node">
<title>BookJWTTokenModule</title>
<polygon fill="#8dd3c7" stroke="black" points="430.37,-160.8 427.37,-164.8 406.37,-164.8 403.37,-160.8 277.63,-160.8 277.63,-124.8 430.37,-124.8 430.37,-160.8"/>
<text text-anchor="middle" x="354" y="-138.6" font-family="Times,serif" font-size="14.00">BookJWTTokenModule</text>
</g>
<!-- MemberModule -->
<g id="node4" class="node">
<title>MemberModule</title>
<polygon fill="#8dd3c7" stroke="black" points="430.48,-225.8 427.48,-229.8 406.48,-229.8 403.48,-225.8 323.52,-225.8 323.52,-189.8 430.48,-189.8 430.48,-225.8"/>
<text text-anchor="middle" x="377" y="-203.6" font-family="Times,serif" font-size="14.00">MemberModule</text>
</g>
<!-- BookJWTTokenModule&#45;&gt;MemberModule -->
<g id="edge9" class="edge">
<title>BookJWTTokenModule&#45;&gt;MemberModule</title>
<path fill="none" stroke="black" d="M376.97,-160.91C376.97,-160.91 376.97,-179.79 376.97,-179.79"/>
<polygon fill="black" stroke="black" points="373.47,-179.79 376.97,-189.79 380.47,-179.79 373.47,-179.79"/>
</g>
<!-- BookJWTTokenModule&#45;&gt;AppModule -->
<g id="edge2" class="edge">
<title>BookJWTTokenModule&#45;&gt;AppModule</title>
<path fill="none" stroke="black" d="M282.65,-161.01C282.65,-161.01 282.65,-247.38 282.65,-247.38"/>
<polygon fill="black" stroke="black" points="279.15,-247.38 282.65,-257.38 286.15,-247.38 279.15,-247.38"/>
</g>
<!-- BookModule -->
<g id="node3" class="node">
<title>BookModule</title>
<polygon fill="#8dd3c7" stroke="black" points="259.89,-160.8 256.89,-164.8 235.89,-164.8 232.89,-160.8 170.11,-160.8 170.11,-124.8 259.89,-124.8 259.89,-160.8"/>
<text text-anchor="middle" x="215" y="-138.6" font-family="Times,serif" font-size="14.00">BookModule</text>
</g>
<!-- BookModule&#45;&gt;AppModule -->
<g id="edge3" class="edge">
<title>BookModule&#45;&gt;AppModule</title>
<path fill="none" stroke="black" d="M234.56,-161.01C234.56,-161.01 234.56,-247.38 234.56,-247.38"/>
<polygon fill="black" stroke="black" points="231.06,-247.38 234.56,-257.38 238.06,-247.38 231.06,-247.38"/>
</g>
<!-- BookService  -->
<g id="node8" class="node">
<title>BookService </title>
<polygon fill="#fb8072" stroke="black" points="260.82,-84.8 169.18,-84.8 169.18,-48.8 260.82,-48.8 260.82,-84.8"/>
<text text-anchor="middle" x="215" y="-62.6" font-family="Times,serif" font-size="14.00">BookService </text>
</g>
<!-- BookModule&#45;&gt;BookService  -->
<g id="edge7" class="edge">
<title>BookModule&#45;&gt;BookService </title>
<path fill="none" stroke="black" stroke-dasharray="5,2" d="M200.02,-124.79C200.02,-124.79 200.02,-94.95 200.02,-94.95"/>
<polygon fill="black" stroke="black" points="203.52,-94.95 200.02,-84.95 196.52,-94.95 203.52,-94.95"/>
</g>
<!-- MemberModule&#45;&gt;AppModule -->
<g id="edge4" class="edge">
<title>MemberModule&#45;&gt;AppModule</title>
<path fill="none" stroke="black" d="M323.28,-213.8C304.37,-213.8 287.74,-213.8 287.74,-213.8 287.74,-213.8 287.74,-247.53 287.74,-247.53"/>
<polygon fill="black" stroke="black" points="284.24,-247.53 287.74,-257.53 291.24,-247.53 284.24,-247.53"/>
</g>
<!-- MemberService  -->
<g id="node9" class="node">
<title>MemberService </title>
<polygon fill="#fb8072" stroke="black" points="578.41,-293.8 469.59,-293.8 469.59,-257.8 578.41,-257.8 578.41,-293.8"/>
<text text-anchor="middle" x="524" y="-271.6" font-family="Times,serif" font-size="14.00">MemberService </text>
</g>
<!-- MemberModule&#45;&gt;MemberService  -->
<g id="edge11" class="edge">
<title>MemberModule&#45;&gt;MemberService </title>
<path fill="none" stroke="black" stroke-dasharray="5,2" d="M430.82,-213.8C468.16,-213.8 511.22,-213.8 511.22,-213.8 511.22,-213.8 511.22,-247.53 511.22,-247.53"/>
<polygon fill="black" stroke="black" points="507.72,-247.53 511.22,-257.53 514.72,-247.53 507.72,-247.53"/>
</g>
<!-- BookElasticModule -->
<g id="node6" class="node">
<title>BookElasticModule</title>
<polygon fill="#8dd3c7" stroke="black" points="412.99,-84.8 409.99,-88.8 388.99,-88.8 385.99,-84.8 285.01,-84.8 285.01,-48.8 412.99,-48.8 412.99,-84.8"/>
<text text-anchor="middle" x="349" y="-62.6" font-family="Times,serif" font-size="14.00">BookElasticModule</text>
</g>
<!-- BookElasticModule&#45;&gt;BookModule -->
<g id="edge5" class="edge">
<title>BookElasticModule&#45;&gt;BookModule</title>
<path fill="none" stroke="black" d="M284.78,-60.8C274.12,-60.8 266.46,-60.8 266.46,-60.8 266.46,-60.8 266.46,-142.8 266.46,-142.8 266.46,-142.8 265.83,-142.8 265.83,-142.8"/>
<polygon fill="black" stroke="black" points="270.15,-139.3 260.15,-142.8 270.15,-146.3 270.15,-139.3"/>
</g>
<!-- BookElasticModule&#45;&gt;MemberModule -->
<g id="edge8" class="edge">
<title>BookElasticModule&#45;&gt;MemberModule</title>
<path fill="none" stroke="black" d="M284.73,-72.8C277.13,-72.8 272.01,-72.8 272.01,-72.8 272.01,-72.8 272.01,-201.8 272.01,-201.8 272.01,-201.8 313.28,-201.8 313.28,-201.8"/>
<polygon fill="black" stroke="black" points="313.28,-205.3 323.28,-201.8 313.28,-198.3 313.28,-205.3"/>
</g>
<!-- BookRedisModule -->
<g id="node7" class="node">
<title>BookRedisModule</title>
<polygon fill="#8dd3c7" stroke="black" points="552.78,-84.8 549.78,-88.8 528.78,-88.8 525.78,-84.8 431.22,-84.8 431.22,-48.8 552.78,-48.8 552.78,-84.8"/>
<text text-anchor="middle" x="492" y="-62.6" font-family="Times,serif" font-size="14.00">BookRedisModule</text>
</g>
<!-- BookRedisModule&#45;&gt;BookModule -->
<g id="edge6" class="edge">
<title>BookRedisModule&#45;&gt;BookModule</title>
<path fill="none" stroke="black" d="M443.92,-84.91C443.92,-94.7 443.92,-104.8 443.92,-104.8 443.92,-104.8 229.98,-104.8 229.98,-104.8 229.98,-104.8 229.98,-114.69 229.98,-114.69"/>
<polygon fill="black" stroke="black" points="226.48,-114.69 229.98,-124.69 233.48,-114.69 226.48,-114.69"/>
</g>
<!-- BookRedisModule&#45;&gt;MemberModule -->
<g id="edge10" class="edge">
<title>BookRedisModule&#45;&gt;MemberModule</title>
<path fill="none" stroke="black" d="M456.73,-85.01C456.73,-121.86 456.73,-201.8 456.73,-201.8 456.73,-201.8 440.63,-201.8 440.63,-201.8"/>
<polygon fill="black" stroke="black" points="440.63,-198.3 430.63,-201.8 440.63,-205.3 440.63,-198.3"/>
</g>
</g>
</svg>
