<?xml version="1.0" encoding="UTF-8" standalone="no"?>
<!DOCTYPE svg PUBLIC "-//W3C//DTD SVG 1.1//EN"
 "http://www.w3.org/Graphics/SVG/1.1/DTD/svg11.dtd">
<!-- Generated by graphviz version 5.0.0 (20220707.1540)
 -->
<!-- Title: dependencies Pages: 1 -->
<svg width="587pt" height="174pt"
 viewBox="0.00 0.00 587.00 173.80" xmlns="http://www.w3.org/2000/svg" xmlns:xlink="http://www.w3.org/1999/xlink">
<g id="graph0" class="graph" transform="scale(1 1) rotate(0) translate(4 169.8)">
<title>dependencies</title>
<polygon fill="white" stroke="transparent" points="-4,4 -4,-169.8 583,-169.8 583,4 -4,4"/>
<text text-anchor="middle" x="289.5" y="-8.2" font-family="sans-serif" font-size="14.00">dependencies</text>
<g id="clust1" class="cluster">
<title>cluster_AppModule</title>
<polygon fill="none" stroke="black" stroke-dasharray="1,5" points="8,-32.8 8,-157.8 571,-157.8 571,-32.8 8,-32.8"/>
</g>
<g id="clust3" class="cluster">
<title>cluster_AppModule_imports</title>
<polygon fill="none" stroke="black" points="16,-40.8 16,-92.8 563,-92.8 563,-40.8 16,-40.8"/>
</g>
<!-- BookConfigModule -->
<g id="node1" class="node">
<title>BookConfigModule</title>
<polygon fill="#8dd3c7" stroke="black" points="555.28,-84.8 552.28,-88.8 531.28,-88.8 528.28,-84.8 426.72,-84.8 426.72,-48.8 555.28,-48.8 555.28,-84.8"/>
<text text-anchor="middle" x="491" y="-62.6" font-family="Times,serif" font-size="14.00">BookConfigModule</text>
</g>
<!-- AppModule -->
<g id="node5" class="node">
<title>AppModule</title>
<polygon fill="#8dd3c7" stroke="black" points="303.66,-149.8 300.66,-153.8 279.66,-153.8 276.66,-149.8 220.34,-149.8 220.34,-113.8 303.66,-113.8 303.66,-149.8"/>
<text text-anchor="middle" x="262" y="-127.6" font-family="Times,serif" font-size="14.00">AppModule</text>
</g>
<!-- BookConfigModule&#45;&gt;AppModule -->
<g id="edge1" class="edge">
<title>BookConfigModule&#45;&gt;AppModule</title>
<path fill="none" stroke="black" d="M491,-84.91C491,-104.14 491,-131.8 491,-131.8 491,-131.8 313.74,-131.8 313.74,-131.8"/>
<polygon fill="black" stroke="black" points="313.74,-128.3 303.74,-131.8 313.74,-135.3 313.74,-128.3"/>
</g>
<!-- BookJWTTokenModule -->
<g id="node2" class="node">
<title>BookJWTTokenModule</title>
<polygon fill="#8dd3c7" stroke="black" points="408.37,-84.8 405.37,-88.8 384.37,-88.8 381.37,-84.8 255.63,-84.8 255.63,-48.8 408.37,-48.8 408.37,-84.8"/>
<text text-anchor="middle" x="332" y="-62.6" font-family="Times,serif" font-size="14.00">BookJWTTokenModule</text>
</g>
<!-- BookJWTTokenModule&#45;&gt;AppModule -->
<g id="edge2" class="edge">
<title>BookJWTTokenModule&#45;&gt;AppModule</title>
<path fill="none" stroke="black" d="M279.7,-84.91C279.7,-84.91 279.7,-103.79 279.7,-103.79"/>
<polygon fill="black" stroke="black" points="276.2,-103.79 279.7,-113.79 283.2,-103.79 276.2,-103.79"/>
</g>
<!-- BookModule -->
<g id="node3" class="node">
<title>BookModule</title>
<polygon fill="#8dd3c7" stroke="black" points="237.89,-84.8 234.89,-88.8 213.89,-88.8 210.89,-84.8 148.11,-84.8 148.11,-48.8 237.89,-48.8 237.89,-84.8"/>
<text text-anchor="middle" x="193" y="-62.6" font-family="Times,serif" font-size="14.00">BookModule</text>
</g>
<!-- BookModule&#45;&gt;AppModule -->
<g id="edge3" class="edge">
<title>BookModule&#45;&gt;AppModule</title>
<path fill="none" stroke="black" d="M229.06,-84.91C229.06,-84.91 229.06,-103.79 229.06,-103.79"/>
<polygon fill="black" stroke="black" points="225.56,-103.79 229.06,-113.79 232.56,-103.79 225.56,-103.79"/>
</g>
<!-- MemberModule -->
<g id="node4" class="node">
<title>MemberModule</title>
<polygon fill="#8dd3c7" stroke="black" points="130.48,-84.8 127.48,-88.8 106.48,-88.8 103.48,-84.8 23.52,-84.8 23.52,-48.8 130.48,-48.8 130.48,-84.8"/>
<text text-anchor="middle" x="77" y="-62.6" font-family="Times,serif" font-size="14.00">MemberModule</text>
</g>
<!-- MemberModule&#45;&gt;AppModule -->
<g id="edge4" class="edge">
<title>MemberModule&#45;&gt;AppModule</title>
<path fill="none" stroke="black" d="M77,-84.91C77,-104.14 77,-131.8 77,-131.8 77,-131.8 210.02,-131.8 210.02,-131.8"/>
<polygon fill="black" stroke="black" points="210.02,-135.3 220.02,-131.8 210.02,-128.3 210.02,-135.3"/>
</g>
</g>
</svg>
