<?xml version="1.0" encoding="UTF-8" standalone="no"?>
<!DOCTYPE svg PUBLIC "-//W3C//DTD SVG 1.1//EN"
 "http://www.w3.org/Graphics/SVG/1.1/DTD/svg11.dtd">
<!-- Generated by graphviz version 5.0.0 (20220707.1540)
 -->
<!-- Title: dependencies Pages: 1 -->
<svg width="494pt" height="247pt"
 viewBox="0.00 0.00 494.00 246.80" xmlns="http://www.w3.org/2000/svg" xmlns:xlink="http://www.w3.org/1999/xlink">
<g id="graph0" class="graph" transform="scale(1 1) rotate(0) translate(4 242.8)">
<title>dependencies</title>
<polygon fill="white" stroke="transparent" points="-4,4 -4,-242.8 490,-242.8 490,4 -4,4"/>
<text text-anchor="middle" x="243" y="-8.2" font-family="sans-serif" font-size="14.00">dependencies</text>
<g id="clust1" class="cluster">
<title>cluster_MemberModule</title>
<polygon fill="none" stroke="black" stroke-dasharray="1,5" points="8,-32.8 8,-230.8 478,-230.8 478,-32.8 8,-32.8"/>
</g>
<g id="clust3" class="cluster">
<title>cluster_MemberModule_imports</title>
<polygon fill="none" stroke="black" points="16,-40.8 16,-92.8 470,-92.8 470,-40.8 16,-40.8"/>
</g>
<g id="clust4" class="cluster">
<title>cluster_MemberModule_exports</title>
<polygon fill="none" stroke="black" points="178,-170.8 178,-222.8 302,-222.8 302,-170.8 178,-170.8"/>
</g>
<!-- BookElasticModule -->
<g id="node1" class="node">
<title>BookElasticModule</title>
<polygon fill="#8dd3c7" stroke="black" points="461.99,-84.8 458.99,-88.8 437.99,-88.8 434.99,-84.8 334.01,-84.8 334.01,-48.8 461.99,-48.8 461.99,-84.8"/>
<text text-anchor="middle" x="398" y="-62.6" font-family="Times,serif" font-size="14.00">BookElasticModule</text>
</g>
<!-- MemberModule -->
<g id="node4" class="node">
<title>MemberModule</title>
<polygon fill="#8dd3c7" stroke="black" points="293.48,-149.8 290.48,-153.8 269.48,-153.8 266.48,-149.8 186.52,-149.8 186.52,-113.8 293.48,-113.8 293.48,-149.8"/>
<text text-anchor="middle" x="240" y="-127.6" font-family="Times,serif" font-size="14.00">MemberModule</text>
</g>
<!-- BookElasticModule&#45;&gt;MemberModule -->
<g id="edge1" class="edge">
<title>BookElasticModule&#45;&gt;MemberModule</title>
<path fill="none" stroke="black" d="M398,-84.91C398,-104.14 398,-131.8 398,-131.8 398,-131.8 303.49,-131.8 303.49,-131.8"/>
<polygon fill="black" stroke="black" points="303.49,-128.3 293.49,-131.8 303.49,-135.3 303.49,-128.3"/>
</g>
<!-- BookJWTTokenModule -->
<g id="node2" class="node">
<title>BookJWTTokenModule</title>
<polygon fill="#8dd3c7" stroke="black" points="316.37,-84.8 313.37,-88.8 292.37,-88.8 289.37,-84.8 163.63,-84.8 163.63,-48.8 316.37,-48.8 316.37,-84.8"/>
<text text-anchor="middle" x="240" y="-62.6" font-family="Times,serif" font-size="14.00">BookJWTTokenModule</text>
</g>
<!-- BookJWTTokenModule&#45;&gt;MemberModule -->
<g id="edge2" class="edge">
<title>BookJWTTokenModule&#45;&gt;MemberModule</title>
<path fill="none" stroke="black" d="M240,-84.91C240,-84.91 240,-103.79 240,-103.79"/>
<polygon fill="black" stroke="black" points="236.5,-103.79 240,-113.79 243.5,-103.79 236.5,-103.79"/>
</g>
<!-- BookRedisModule -->
<g id="node3" class="node">
<title>BookRedisModule</title>
<polygon fill="#8dd3c7" stroke="black" points="145.78,-84.8 142.78,-88.8 121.78,-88.8 118.78,-84.8 24.22,-84.8 24.22,-48.8 145.78,-48.8 145.78,-84.8"/>
<text text-anchor="middle" x="85" y="-62.6" font-family="Times,serif" font-size="14.00">BookRedisModule</text>
</g>
<!-- BookRedisModule&#45;&gt;MemberModule -->
<g id="edge3" class="edge">
<title>BookRedisModule&#45;&gt;MemberModule</title>
<path fill="none" stroke="black" d="M85,-84.91C85,-104.14 85,-131.8 85,-131.8 85,-131.8 176.22,-131.8 176.22,-131.8"/>
<polygon fill="black" stroke="black" points="176.22,-135.3 186.22,-131.8 176.22,-128.3 176.22,-135.3"/>
</g>
<!-- MemberService  -->
<g id="node5" class="node">
<title>MemberService </title>
<polygon fill="#fb8072" stroke="black" points="294.41,-214.8 185.59,-214.8 185.59,-178.8 294.41,-178.8 294.41,-214.8"/>
<text text-anchor="middle" x="240" y="-192.6" font-family="Times,serif" font-size="14.00">MemberService </text>
</g>
<!-- MemberModule&#45;&gt;MemberService  -->
<g id="edge4" class="edge">
<title>MemberModule&#45;&gt;MemberService </title>
<path fill="none" stroke="black" stroke-dasharray="5,2" d="M240,-149.91C240,-149.91 240,-168.79 240,-168.79"/>
<polygon fill="black" stroke="black" points="236.5,-168.79 240,-178.79 243.5,-168.79 236.5,-168.79"/>
</g>
</g>
</svg>
